<svg version="1.1" xmlns="http://www.w3.org/2000/svg" xmlns:xlink="http://www.w3.org/1999/xlink" x="0" y="0" width="200" height="200" viewBox="0, -100, 600, 1000">
        <g id="Layer_2">
          <path class="change-fill" style="fill: #fff" d="M610.2,187.6c3.8-2.1,6.7-5,8.7-8.5c2.3-4.1,4.9-12.8-2.6-25c-3.1-5.1-11.1-7.6-17.7-5.6
            c-6.3,1.9-9.8,7.3-9.6,14.4c0.1,3.2,2.8,5.7,6,5.6c3.2-0.1,5.7-2.8,5.6-6c-0.1-2.2,0.6-2.5,1-2.7c1.6-0.7,4-0.1,4.7,0.5
            c2.3,3.7,4.5,9,2.3,13.1c-1.5,2.8-5,4.9-9.6,5.9c-9.1-5.4-18.2-8.5-26.7-9.2c-4.9-6-7.6-13.9-7.7-22.2c-0.1-8.9,2.7-17.2,8-23.4
            c5-6,11.7-9.4,18.8-9.4c7-0.1,12.5,2.5,14.4,6.6c1.7,3.7,0.4,8.3-3.7,13.1c-0.6,0.7-3.2,1.4-4.8,0.6c-0.3-0.2-1.1-0.5-0.6-3.1
            c0.6-3.2-1.4-6.2-4.6-6.9c-3.2-0.6-6.2,1.4-6.9,4.6c-1.4,7.1,1.1,13.1,6.9,15.9c6.1,3,14.6,1.5,18.8-3.5c7.2-8.4,9.2-17.7,5.4-25.7
            c-1.8-4-5-7.2-9-9.5c2-1.6,3.7-3.5,5.1-5.6c3.9-5.8,5.4-12.8,4-19.7c-1.3-6.9-5.3-12.8-11.1-16.8c-12-8.1-28.3-5-36.4,7
            c-1.5,2.2-2.6,4.5-3.3,6.9c-3.6-2.9-7.8-4.6-12.2-4.9c-8.8-0.5-16.7,4.8-21.8,14.6c-3,5.7-1.3,14.2,3.8,18.7
            c4.8,4.3,11.2,4.5,17.3,0.5c2.7-1.8,3.4-5.4,1.7-8.1c-1.8-2.7-5.4-3.4-8.1-1.7c-2.2,1.4-2.8,0.9-3.1,0.6c-1.3-1.2-1.7-3.9-1.2-4.7
            c2.9-5.6,6.8-8.6,10.8-8.3c4.6,0.3,9,4.4,11.5,10.9c5.4,14-3.8,30.6-20.6,37.1c-6.6,2.6-13.6,3.2-20.1,2c-4.6-8-11.8-15.6-21.4-22.1
            c-0.2-0.1-0.4-0.2-0.6-0.4c-0.7-4.6,0-8.5,1.9-10.9c3-3.6,8.7-3.5,13-2.8c0.8,0.4,2.3,2.5,2.3,4.2c0,0.4,0,1.2-2.1,1.9
            c-3,1.1-4.6,4.4-3.5,7.5c1.1,3,4.4,4.6,7.5,3.5c6.7-2.4,10.3-7.7,9.8-14.2c-0.6-6.9-5.8-13.3-11.7-14.3c-14.1-2.5-21.2,3.2-24.2,6.8
            c-2.7,3.3-4.3,7.5-4.8,12.2c-30.1-11.5-67.5,1.5-88.7,32.8c-11.6,17.1-16.7,37.2-14.5,56.5c2.2,18.7,10.9,34.6,24.8,45.2
            c-5.6,3.2-9.4,8.1-10.5,13.8c-1.4,7.7,2.2,15.3,10.1,20.8c0.8,0.6,1.7,1,2.6,1.4c-2.4,1.6-4.3,3.9-5.1,6.5c-0.8,2.6-1.2,4.9-1.4,7
            c-2.8-0.7-5.8,0.3-7.5,2.8l-7.5,11.1c-2.1,3.2-1.3,7.5,1.9,9.6l13.8,9.3l-11.5,17l-4.7-3.2c-3.2-2.1-7.5-1.3-9.6,1.9l-3.3,4.8
            c-2.1,3.2-1.3,7.5,1.9,9.6l4.7,3.2l-11.5,17.1l-4.7-3.2c-3.2-2.1-7.5-1.3-9.6,1.9l-3.3,4.8c-2.1,3.2-1.3,7.5,1.9,9.6l4.7,3.2
            l-28.9,42.7L305,390.8l4.7-3.2c3.2-2.1,4-6.5,1.9-9.6l-3.3-4.8c-2.1-3.2-6.5-4-9.6-1.9l-4.7,3.2l-11.5-17.1l4.7-3.2
            c3.2-2.1,4-6.5,1.9-9.6l-3.3-4.8c-2.1-3.2-6.5-4-9.6-1.9l-4.7,3.2l-11.5-17l13.8-9.3c3.2-2.1,4-6.5,1.9-9.6l-7.5-11.1
            c-1.7-2.5-4.8-3.5-7.5-2.8c-0.2-2.1-0.6-4.4-1.4-7c-0.8-2.6-2.7-4.9-5.1-6.5c0.9-0.4,1.8-0.8,2.6-1.4c7.9-5.5,11.6-13.1,10.1-20.8
            c-1.1-5.7-4.9-10.5-10.5-13.8c13.9-10.6,22.7-26.5,24.8-45.2c2.2-19.3-2.9-39.4-14.5-56.5c-21.2-31.4-58.6-44.3-88.7-32.8
            c-0.4-4.7-2-8.9-4.8-12.2c-3-3.6-10.1-9.3-24.2-6.8c-5.9,1-11.1,7.5-11.7,14.3c-0.6,6.5,3.1,11.8,9.8,14.2c3,1.1,6.4-0.5,7.5-3.5
            c1.1-3-0.5-6.4-3.5-7.5c-2.1-0.7-2.1-1.5-2.1-1.9c0-1.7,1.4-3.8,2.3-4.2c4.3-0.7,10-0.9,13,2.8c2,2.4,2.6,6.3,1.9,10.9
            c-0.2,0.1-0.4,0.2-0.6,0.4c-9.6,6.5-16.8,14-21.4,22c-6.5,1.2-13.5,0.6-20.1-2c-16.8-6.5-26-23.1-20.6-37.1
            c2.5-6.5,6.9-10.7,11.5-10.9c4-0.2,7.9,2.7,10.8,8.3c0.4,0.8,0.1,3.5-1.2,4.7c-0.3,0.2-0.9,0.8-3.1-0.6c-2.7-1.8-6.3-1-8.1,1.7
            c-1.8,2.7-1,6.3,1.7,8.1c6.1,4,12.6,3.8,17.3-0.5c5.1-4.6,6.8-13,3.8-18.7c-5.1-9.8-13-15.1-21.8-14.6c-4.4,0.2-8.5,2-12.1,4.9
            c-0.8-2.4-1.9-4.7-3.3-6.8c-8.1-12-24.5-15.1-36.4-7c-5.8,3.9-9.7,9.9-11.1,16.8c-1.3,6.9,0.1,13.9,4,19.7c1.5,2.1,3.2,4,5.1,5.6
            c-4,2.3-7.2,5.5-9,9.5c-3.7,8-1.7,17.3,5.4,25.7c4.2,4.9,12.7,6.5,18.8,3.5c5.8-2.8,8.3-8.8,6.9-15.9c-0.6-3.2-3.7-5.2-6.9-4.6
            c-3.2,0.6-5.2,3.7-4.6,6.9c0.5,2.6-0.3,2.9-0.6,3.1c-1.6,0.8-4.2,0.1-4.8-0.6c-4.1-4.8-5.4-9.5-3.7-13.1c1.9-4.1,7.3-6.6,14.1-6.6
            c0.1,0,0.2,0,0.3,0c7.1,0.1,13.8,3.4,18.8,9.4c5.3,6.3,8.1,14.6,8,23.4c-0.1,8.4-2.8,16.2-7.7,22.2c-8.5,0.7-17.6,3.8-26.7,9.2
            c-4.6-1.1-8.1-3.1-9.6-5.9c-2.3-4.1,0-9.4,2.3-13.1c0.7-0.6,3.1-1.2,4.7-0.5c0.4,0.2,1.1,0.5,1,2.7c-0.1,3.2,2.4,5.9,5.6,6
            c3.2,0.1,5.9-2.4,6-5.6c0.3-7.1-3.3-12.5-9.6-14.4c-6.6-2-14.5,0.5-17.6,5.6c-7.5,12.2-4.9,20.9-2.6,25c1.9,3.5,4.9,6.4,8.7,8.5
            c-25.3,23.1-28.5,65.1-6.2,98.2c11.6,17.1,28.3,29.4,47.1,34.5c6.3,1.7,12.6,2.6,18.8,2.6c12.7,0,24.8-3.6,35.2-10.7
            c0.8-0.5,1.6-1.1,2.4-1.7c0.9,6.4,4,11.7,8.9,14.8c6.6,4.2,15,3.6,23.1-1.7c0.8-0.5,1.6-1.2,2.3-1.9c0.6,2.9,2,5.5,4.1,7.2
            c2.9,2.4,5.7,3.9,8.2,4.8c-0.2,1.6,0.2,3.2,1.1,4.7l7.5,11.1c2.1,3.2,6.5,4,9.6,1.9l10.7-7.3l11.5,17l-1.6,1.1
            c-3.2,2.1-4,6.5-1.9,9.6l3.3,4.8c2.1,3.2,6.5,4,9.6,1.9l1.6-1.1l11.5,17l-1.6,1.1c-3.2,2.1-4,6.5-1.9,9.6l3.3,4.8
            c2.1,3.2,6.5,4,9.6,1.9l1.6-1.1l36.9,54.5l-188,277.6c-5.5,8.1-3.4,19.1,4.7,24.6c3,2.1,6.5,3.1,9.9,3.1c5.7,0,11.3-2.7,14.7-7.8
            l4.6-6.8l14,9.5c2.6,1.8,6.2,1.1,8-1.5l5-7.4l6.2,4.2c-2.2,7-0.3,14.5,5.2,18.2c7.1,4.8,17.3,1.9,23-6.4c5.6-8.3,4.5-18.9-2.6-23.7
            c-5.6-3.8-13.1-2.8-18.9,1.9l-6.2-4.2l5-7.4c1.8-2.6,1.1-6.2-1.5-8l-14-9.5l5.8-8.5l14,9.5c2.6,1.8,6.2,1.1,8-1.5l5-7.4l6.2,4.2
            c-2.2,7-0.3,14.5,5.2,18.2c7.1,4.8,17.3,1.9,23-6.4c5.6-8.3,4.5-18.9-2.6-23.7c-5.6-3.8-13.1-2.8-18.9,1.9l-6.2-4.2l5-7.4
            c1.8-2.6,1.1-6.2-1.5-8l-14-9.5l5.8-8.5l14,9.5c2.6,1.8,6.2,1.1,8-1.5l5-7.4l6.2,4.2c-2.2,7-0.3,14.5,5.2,18.2
            c7.1,4.8,17.3,1.9,23-6.4c5.6-8.3,4.5-18.9-2.6-23.7c-5.6-3.8-13.1-2.8-18.9,1.9l-6.2-4.2l5-7.4c1.8-2.6,1.1-6.2-1.5-8l-14-9.5
            l94.1-138.9L428,635.8l-14,9.5c-2.6,1.8-3.3,5.4-1.5,8l5,7.4l-6.2,4.2c-5.7-4.7-13.3-5.7-18.9-1.9c-7.1,4.8-8.2,15.4-2.6,23.7
            c5.6,8.3,15.9,11.2,23,6.4c5.6-3.8,7.4-11.2,5.2-18.2l6.2-4.2l5,7.4c1.8,2.6,5.4,3.3,8,1.5l14-9.5l5.8,8.5l-14,9.5
            c-2.6,1.8-3.3,5.4-1.5,8l5,7.4l-6.2,4.2c-5.7-4.7-13.3-5.7-18.9-1.9c-7.1,4.8-8.2,15.4-2.6,23.7c5.6,8.3,15.9,11.2,23,6.4
            c5.6-3.8,7.4-11.2,5.2-18.2l6.2-4.2l5,7.4c1.8,2.6,5.4,3.3,8,1.5l14-9.5l5.8,8.5l-14,9.5c-2.6,1.8-3.3,5.4-1.5,8l5,7.4l-6.2,4.2
            c-5.7-4.7-13.3-5.7-18.9-1.9c-7.1,4.8-8.2,15.4-2.6,23.7c5.6,8.3,15.9,11.2,23,6.4c5.6-3.8,7.4-11.2,5.2-18.2l6.2-4.2l5,7.4
            c1.8,2.6,5.4,3.3,8,1.5l14-9.5l4.6,6.8c3.4,5.1,9,7.8,14.7,7.8c3.4,0,6.9-1,9.9-3.1c8.1-5.5,10.2-16.5,4.7-24.6l-188-277.6
            l36.9-54.5l1.6,1.1c3.2,2.1,7.5,1.3,9.6-1.9l3.3-4.8c2.1-3.2,1.3-7.5-1.9-9.6l-1.6-1.1l11.5-17.1l1.6,1.1c3.2,2.1,7.5,1.3,9.6-1.9
            l3.3-4.8c2.1-3.2,1.3-7.5-1.9-9.6l-1.6-1.1l11.5-17l10.7,7.3c3.2,2.1,7.5,1.3,9.6-1.9l7.5-11.1c1-1.4,1.3-3.1,1.1-4.7
            c2.5-0.9,5.3-2.5,8.2-4.8c2.1-1.7,3.5-4.3,4.1-7.2c0.7,0.7,1.4,1.4,2.3,1.9c8,5.3,16.4,5.9,23.1,1.7c4.9-3.1,8-8.4,8.9-14.8
            c0.8,0.6,1.6,1.1,2.4,1.7c10.4,7.1,22.5,10.7,35.2,10.7c6.2,0,12.5-0.8,18.8-2.6c18.8-5.1,35.5-17.3,47.1-34.5
            C638.7,252.7,635.5,210.6,610.2,187.6z M528.6,148.1c0.6,0,1.1,0,1.7,0c6,0,12-1.1,17.8-3.4c1.8-0.7,3.5-1.5,5.1-2.3
            c-0.2,1.9-0.3,3.7-0.3,5.6c0.1,8.3,2.2,16.2,6,23.1c-2.5,0.6-4.9,1.5-7.2,2.7c-7,3.5-18.7,12.6-21.1,35c-1.7-5.6-5.2-10.7-10.4-14.2
            c-4.1-2.8-8.8-4.3-13.6-4.5c18.1-10.4,22-23.9,22.6-31.5C529.6,155.1,529.3,151.5,528.6,148.1z M575.8,213.3
            c-4.8-3.1-11.2-1.7-14.3,3.1c-2.1,3.3-3.5,3-4.2,2.9c-3-0.6-5.9-4-6.3-5.6c0.4-7.8,2.5-17.7,10-21.4c7.3-3.6,19.1-1,30.7,6.9
            c22,14.9,25.4,48.5,7.5,74.9c-8.8,13-21.4,22.3-35.4,26.1c-13.4,3.7-26.5,1.8-37-5.3c-10.2-6.9-15.7-16.2-14.3-24.2
            c1.2-7.1,7.9-12.6,18.7-15.4c1.6-0.4,6,1.2,7.6,4c0.3,0.6,1.1,1.9-2.3,5.1c-4.1,4-4.3,10.5-0.3,14.6c4,4.1,10.5,4.3,14.6,0.3
            c9.3-8.9,11.6-20.2,6-30.1c-5.9-10.6-19.8-16.9-30.9-14c-1.3,0.3-2.5,0.7-3.8,1.1c1.9-1.6,3.5-3.4,4.9-5.4c2.2-3.3,3.6-6.9,4.2-10.6
            c2.7,8.1,10.1,15.6,19,18.5c11.1,3.6,21.7-0.7,28.5-11.3C582,222.8,580.6,216.4,575.8,213.3z M491.9,276.8
            c-6.3-2.5-13.4-3.3-20.5-2.3c-3.4,0.5-6.7,1.4-9.8,2.6c0-3.3-0.4-6.7-1.2-10.1c-1.3-5.3-3.5-10.1-6.5-14.2c3.8-0.9,7.4-2.3,10.8-4.3
            c8.3-5.1,13.9-13.2,16.2-23.3c1.9,5.2,5.3,9.6,9.9,12.7c4.4,3,9.5,4.5,14.7,4.5c1.5,0,2.9-0.1,4.4-0.4c-9.7,6.1-15.9,14.7-17.7,25.1
            C491.6,270.4,491.5,273.6,491.9,276.8z M437.2,212c5.3,2.1,11.3-0.4,13.5-5.7c1.7-4.3,3.2-4.1,3.9-4c3.2,0.4,6.4,4,6.6,5.6
            c1.4,11.1-1.2,19.3-7.3,23.1c-6.9,4.3-17.6,2.6-27.8-4.3c-10.4-7.1-17-18.5-18.6-32.4c-1.7-14.4,2.3-29.5,11.1-42.5
            c17.9-26.4,50.3-35.7,72.3-20.8c11.7,7.9,18.5,17.8,17.8,26c-0.7,8.3-9.1,13.9-16.2,17.2c-1.6,0.2-5.8-1.3-7.5-3.8
            c-0.4-0.6-1.2-1.8,1.1-4.9c3.3-4.6,2.3-11.1-2.4-14.4c-4.6-3.3-11.1-2.3-14.4,2.4c-7.3,10.2-7.3,21.7,0.1,30.6
            c5.3,6.4,13.4,10.3,21.1,10.8c-2.6,1.8-4.9,4.1-6.7,6.8c-0.8,1.2-1.5,2.5-2.1,3.7c0,0,0,0,0,0c-1.4-11.4-12.4-21.9-24.4-23.5
            c-11.3-1.5-20.9,4.8-25.7,16.8C429.4,203.8,431.9,209.9,437.2,212z M508.3,230.5c-3.8,0.7-7.7-0.1-10.9-2.2
            c-3.2-2.2-5.4-5.5-6.1-9.3c-0.7-3.8,0.1-7.7,2.2-10.9c2.2-3.2,5.5-5.4,9.3-6.1c0.9-0.2,1.9-0.3,2.8-0.3c2.9,0,5.7,0.9,8.1,2.5
            c6.7,4.5,8.4,13.6,3.9,20.2C515.4,227.6,512.1,229.8,508.3,230.5z M114.8,148c0-1.9-0.1-3.8-0.3-5.6c1.6,0.9,3.4,1.6,5.1,2.3
            c5.8,2.3,11.9,3.4,17.8,3.4c0.6,0,1.1,0,1.7,0c-0.7,3.5-1,7-0.7,10.5c0.6,7.5,4.5,21.1,22.6,31.5c-4.8,0.2-9.5,1.7-13.6,4.5
            c-5.2,3.5-8.7,8.6-10.4,14.2c-2.4-22.3-14.1-31.5-21.1-35c-2.3-1.1-4.7-2-7.2-2.7C112.6,164.3,114.7,156.3,114.8,148z M198.6,153.3
            c-3.3-4.6-9.8-5.7-14.4-2.4c-4.6,3.3-5.7,9.8-2.4,14.4c2.3,3.2,1.5,4.3,1.1,4.9c-1.6,2.5-5.9,4-7.5,3.8c-7.1-3.3-15.5-8.9-16.2-17.2
            c-0.7-8.1,6.2-18.1,17.8-26c22-14.9,54.5-5.6,72.3,20.8c8.8,13,12.8,28.1,11.1,42.5c-1.6,13.8-8.2,25.3-18.6,32.4
            c-10.2,6.9-20.9,8.6-27.8,4.3c-6.1-3.8-8.7-12-7.3-23.1c0.2-1.6,3.4-5.2,6.6-5.6c0.6-0.1,2.2-0.3,3.9,4c2.1,5.3,8.2,7.9,13.5,5.7
            c5.3-2.1,7.9-8.2,5.7-13.5c-4.8-12-14.4-18.3-25.7-16.8c-12,1.6-23,12.1-24.4,23.5c0,0,0,0,0,0c-0.6-1.3-1.3-2.5-2.1-3.7
            c-1.8-2.7-4.1-5-6.7-6.8c7.7-0.5,15.9-4.4,21.1-10.8C205.8,175,205.9,163.5,198.6,153.3z M186.9,225.3c2.4,10.1,7.9,18.2,16.2,23.3
            c3.3,2,6.9,3.5,10.8,4.3c-2.9,4.1-5.2,8.9-6.5,14.2c-0.8,3.4-1.2,6.8-1.2,10.1c-3.1-1.2-6.3-2.1-9.8-2.6c-7.3-1-14.4-0.1-20.5,2.3
            c0.3-3.2,0.2-6.4-0.3-9.6c-1.8-10.4-8-19-17.7-25.1c1.5,0.2,2.9,0.4,4.4,0.4c5.2,0,10.3-1.5,14.7-4.5
            C181.6,234.8,185,230.4,186.9,225.3z M176.6,219c-0.7,3.8-2.9,7.1-6.1,9.3c-3.2,2.2-7.1,3-10.9,2.2c-3.8-0.7-7.1-2.9-9.3-6.1
            c-2.2-3.2-3-7.1-2.2-10.9c0.7-3.8,2.9-7.1,6.1-9.3c2.4-1.7,5.3-2.5,8.1-2.5c0.9,0,1.9,0.1,2.8,0.3c3.8,0.7,7.1,2.9,9.3,6.1
            C176.5,211.3,177.3,215.2,176.6,219z M116.9,279.4c4.1,4,10.7,3.8,14.6-0.3c4-4.1,3.8-10.7-0.3-14.6c-3.3-3.2-2.6-4.5-2.3-5.1
            c1.6-2.8,6.1-4.4,7.6-4c10.9,2.8,17.5,8.3,18.7,15.4c1.4,8-4.1,17.3-14.3,24.2c-10.4,7.1-23.5,8.9-37,5.3
            c-14-3.8-26.5-13.1-35.4-26.1c-17.9-26.4-14.5-60,7.5-74.9c11.7-7.9,23.4-10.6,30.7-6.9c7.4,3.7,9.5,13.6,10,21.4
            c-0.4,1.6-3.3,5-6.3,5.6c-0.7,0.1-2.1,0.4-4.2-2.9c-3.1-4.8-9.5-6.2-14.3-3.1c-4.8,3.1-6.2,9.5-3.1,14.3
            c6.8,10.6,17.4,14.8,28.5,11.3c8.9-2.9,16.3-10.4,19-18.5c0.6,3.7,2,7.3,4.2,10.6c1.4,2.1,3.1,3.9,4.9,5.4c-1.2-0.4-2.5-0.8-3.8-1.1
            c-11.1-2.9-25,3.4-30.9,14C105.3,259.2,107.5,270.5,116.9,279.4z M214.2,315.9c-1.1,2.8-2.6,4.8-4.4,5.5c-2.5,1-5.8-1-7.8-2.5
            c-0.1-0.3-0.1-0.8,0-1.1c0.1,0,0.2,0,0.3,0c3.6,0.6,7.1-1.8,7.7-5.5c0.6-3.6-1.8-7.1-5.5-7.7c-4.7-0.8-9,0.5-11.9,3.4
            c-0.1-0.5-0.2-0.9-0.4-1.4c-1.5-4.5-5.9-9-13.9-8.4c-3.7,0.3-6.4,3.4-6.2,7.1c0.3,3.7,3.4,6.4,7.1,6.2c0.1,0,0.3,0,0.4,0
            c-0.1,0.4-0.2,0.8-0.3,1c-3.4,2.2-6.5,2.7-8.5,1.5c-2.4-1.5-3.5-5.5-2.8-10.1c1.5-10.8,13.4-18,26.5-16.1
            c11.8,1.7,20.6,10.2,21.1,19.7C214.5,310.1,214,313,214.2,315.9z M230.3,296.9c-8.3-4.2-12.7-15.3-9.9-26.7
            c2.2-9.1,8.5-16,15.7-18.3c0.2,0,0.3-0.1,0.5-0.1c1.6-0.5,3.2-0.7,4.8-0.7c1.3,0,2.6,0.2,3.9,0.5c4.6,1.1,7.8,3.6,8.4,6.4
            c0.4,2.3-1.2,5-4.5,7.3c-0.3,0.1-0.7,0-1-0.1c0-0.1,0.1-0.2,0.1-0.3c1.6-3.3,0.2-7.3-3.1-8.9c-3.3-1.6-7.3-0.2-8.9,3.1
            c-3.5,7.2-0.9,13,2.7,16c0.4,0.3,0.7,0.6,1.1,0.9c-3.8,1.6-6.6,5.1-7.6,9.8c-0.8,3.6,1.5,7.1,5.1,7.9c3.6,0.8,7.1-1.5,7.9-5.1
            c0-0.1,0-0.2,0.1-0.3c0.3,0.1,0.8,0.2,1.1,0.4c0.7,2.4,1.3,6.2-0.5,8.1c-1.1,1.2-3.1,1.9-5.7,2C237.2,297.3,233.7,296.6,230.3,296.9
            z M437.5,296.9c-3.5-0.3-7,0.4-10,2c-2.5-0.1-4.5-0.8-5.7-2c-1.9-2-1.2-5.7-0.5-8.1c0.3-0.2,0.7-0.4,1.1-0.4c0,0.1,0,0.2,0.1,0.3
            c0.8,3.6,4.3,5.9,7.9,5.1c3.6-0.8,5.9-4.3,5.1-7.9c-1-4.7-3.8-8.2-7.6-9.8c0.4-0.3,0.8-0.6,1.1-0.9c3.6-3,6.2-8.9,2.7-16
            c-1.6-3.3-5.6-4.7-8.9-3.1c-3.3,1.6-4.7,5.6-3.1,8.9c0.1,0.1,0.1,0.2,0.1,0.3c-0.4,0.1-0.8,0.1-1,0.1c-3.3-2.4-4.9-5-4.5-7.3
            c0.5-2.8,3.8-5.3,8.4-6.4c2.8-0.7,5.7-0.6,8.4,0.2c0.3,0.1,0.5,0.2,0.8,0.2c7.2,2.3,13.4,9.2,15.6,18.3
            C450.2,281.6,445.8,292.7,437.5,296.9z M496.9,314c-2,1.3-5,0.7-8.5-1.5c-0.2-0.2-0.3-0.6-0.3-1c0.1,0,0.2,0,0.4,0
            c3.7,0.3,6.8-2.5,7.1-6.2c0.3-3.7-2.5-6.8-6.2-7.1c-8-0.6-12.4,4-13.9,8.4c-0.1,0.4-0.3,0.9-0.4,1.4c-2.9-2.9-7.2-4.2-11.9-3.4
            c-3.6,0.6-6.1,4-5.5,7.7c0.6,3.6,4,6.1,7.7,5.5c0.1,0,0.2,0,0.3,0c0.1,0.3,0.1,0.8,0,1.1c-2,1.5-5.2,3.5-7.8,2.5
            c-1.7-0.7-3.3-2.7-4.4-5.5c0.2-2.9-0.3-5.8-1.5-8.5c0.5-9.5,9.3-18,21.1-19.7c1.4-0.2,2.8-0.3,4.1-0.3c5.1,0,9.9,1.3,13.9,3.9
            c4.8,3.1,7.8,7.5,8.5,12.5C500.4,308.5,499.3,312.5,496.9,314z"></path>
        </g>
    </svg>