<?xml version="1.0" encoding="utf-8"?>
<!-- Generator: Adobe Illustrator 23.1.0, SVG Export Plug-In . SVG Version: 6.00 Build 0)  -->
<svg version="1.1" xmlns="http://www.w3.org/2000/svg" xmlns:xlink="http://www.w3.org/1999/xlink" x="0px" y="0px"
	 viewBox="0 0 960 1080" style="enable-background:new 0 0 960 1080;" xml:space="preserve">
<style type="text/css">
	.st0{fill:#F3E7D9;}
	.st1{fill:#856792;}
	.st2{fill:#665070;}
	.st3{fill:#288453;}
	.st4{fill:#33A86D;}
	.st5{fill:#7A462F;}
	.st6{fill:#CE9436;}
	.st7{fill:#F7BC4B;}
	.st8{fill:#1689CB;}
	.st9{fill:#121721;}
	.st10{fill:#3E4C6F;}
	.st11{fill:#ED5D4F;}
	.st12{fill:#48598B;}
	.st13{fill:#273252;}
	.st14{fill:#EE5D4F;}
	.st15{fill:#1D2538;}
	.st16{fill:#C94039;}
	.st17{fill:#CC6D3D;}
	.st18{fill:#F5894E;}
	.st19{fill:#992C29;}
	.st20{fill:#34283A;}
	.st21{fill:none;stroke:#29ABE2;stroke-width:2;stroke-linecap:round;stroke-linejoin:round;stroke-miterlimit:10;}
	.st22{fill:#FFACFF;stroke:#29ABE2;stroke-miterlimit:10;}
	.st23{fill:none;stroke:#34283A;stroke-width:0.75;stroke-linecap:round;stroke-linejoin:round;stroke-miterlimit:10;}
</style>
<g id="bg">
	<path class="st0" d="M645,177.16c0,0-5.33-78.64,54.65-94.63c59.98-15.99,82.63,29.32,82.63,29.32s17.33-14.66,29.32-14.66
		s14.66,12,14.66,12s46.65-17.33,54.65-14.66c8,2.67-50.65,33.32-125.28,62.64s-150.61,55.98-150.61,55.98L645,177.16z"/>
	<path class="st0" d="M432.5,285.44c0,0-20.9-72.64-66.67-87.57s-50.75,6.97-50.75,6.97s12.94-95.53-32.84-111.45
		s-102.49-1.99-144.29,30.85s-34.83,64.68-25.87,86.57c0,0-10.95,3.98-25.87,13.93c-14.93,9.95-5.97,35.82,3.98,40.8
		c0,0-23.88,0-32.84,0s21.89,11.94,51.74,22.89c25.52,9.36,69.96,20.9,107.19,28.4c5.88,1.18,9.86-5.82,5.85-10.27l-5.57-6.19
		c0,0,110.7,19.9,184.09,29.85C459.37,338.18,432.5,285.44,432.5,285.44z"/>
	<path class="st0" d="M914.4,293.38c0,0-58.57,32.09-105.1,45.73s-67.39,15.24-67.39,15.24l86.65-34.5c0,0,16.85-40.11,33.7-38.51
		s24.87,10.43,24.87,10.43s16.05-16.05,24.07-12.03S914.4,293.38,914.4,293.38z"/>
</g>
<g id="ground">
	<path class="st1" d="M458.31,885.64c0,0-195.07,14.75-221.3,14.75S94.39,913.5,73.08,913.5s16.39,16.39,16.39,16.39l-50.82,32.79
		l22.95,19.67c0,0,131.14,18.03,173.76,18.03c22.95-1.64,131.14-32.79,131.14-32.79l50.82-9.84l96.72,18.03l59.01-9.84l32.79-13.93
		c0,0,21.31-5.74,67.21-5.74c45.9,0,178.68,3.28,199.99,3.28l8.2-29.51l37.7-26.23L458.31,885.64z"/>
	<path class="st2" d="M329.22,893.83c0,0-52.87-4.92-36.88,7.38c15.98,12.29,56.56,8.61,56.56,8.61s-34.42,3.69,19.67,13.52
		c54.1,9.84,306.14-11.07,306.14-11.07s2.46-18.44-88.52-18.44S329.22,893.83,329.22,893.83z"/>
	<path class="st2" d="M164.88,946.29c0,0-119.67,19.67-96.72,27.87c22.95,8.2,83.6,1.64,83.6,1.64l50.82,11.47
		c0,0,100-32.79,70.49-36.06S164.88,946.29,164.88,946.29z"/>
	<path class="st2" d="M360.78,938.51c0,0-28.36-2.03-30.39,3.04c-2.03,5.06,30.39,7.09,36.47,4.05
		C372.94,942.56,360.78,938.51,360.78,938.51z"/>
	<path class="st2" d="M385.17,933.23c0,0-18.64-1.33-19.97,2c-1.33,3.33,19.97,4.66,23.97,2.66S385.17,933.23,385.17,933.23z"/>
	<path class="st2" d="M753.38,917.19c0,0-28.28,13.52-1.23,9.84C779.2,923.34,781.66,915.96,753.38,917.19z"/>
	<path class="st2" d="M798.87,922.93c0,0-22.13-7.38-18.44,1.23C784.12,932.76,808.71,929.08,798.87,922.93z"/>
	<path class="st2" d="M738.66,915.48c0,0-24.09,2.49-8.18,5.68c15.91,3.2,20.58-3.44,16.55-4.79S738.66,915.48,738.66,915.48z"/>
	<path class="st2" d="M863.21,957.76l-185.24-4.1l-48.77-0.82l-43.03,19.67l19.67,19.67c0,0,9.02,4.92,54.1,9.02
		c45.08,4.1,164.75,12.29,172.94,11.47c8.2-0.82,36.06-43.44,36.06-43.44L863.21,957.76z"/>
	<path class="st2" d="M493.97,989.73c25.82-11.07-77.46-25.82-77.46-25.82s-135.24,24.59-99.59,35.65
		C316.92,999.56,468.15,1000.79,493.97,989.73z"/>
	<path class="st2" d="M550.11,917.6c0,0-104.09,16.39-72.95,26.23c31.15,9.84,59.97,8.33,59.01,1.64
		c-0.82-5.74-18.85-10.66-18.85-10.66s52.46-1.64,54.1-7.38S550.11,917.6,550.11,917.6z"/>
	<polygon class="st1" points="533.31,981.12 573.88,977.43 607.08,998.34 484.13,1006.94 505.03,993.42 	"/>
</g>
<g id="tree">
	<path class="st3" d="M375.12,787.27c0,0-24.28-28.33-42.49-38.44c-18.21-10.12-23.6,24.28-8.09,29.67c0,0-8.09,6.74-8.09,14.16
		s0,7.42,0,7.42s-13.49-4.72-18.88,4.72c-5.4,9.44,1.35,15.51,1.35,15.51s-9.44,4.72-9.44,11.47s2.7,11.47,14.84,10.79
		c0,0-7.42,7.42,0.67,13.49c8.09,6.07,24.95,10.12,37.09-6.74C354.21,832.46,375.12,787.27,375.12,787.27z"/>
	<path class="st3" d="M338.64,701.95c-9.44-6.07-12.14,0.67-14.16,8.09s14.16,6.74,14.16,6.74s-4.72,1.35-10.12,3.37
		c-5.4,2.02,7.42,22.26,18.88,12.81C358.88,723.53,338.64,701.95,338.64,701.95z"/>
	<path class="st4" d="M321.45,898.74c0,0,2.09-17.51-7.4-20.97c-9.49-3.46-8.16,6.16-8.16,6.16s-10.36-29.04-29.74-21.6
		s-8.65,23.72-8.65,23.72s-10.32-30.64-22.07-10.2c-11.76,20.43,1.06,19.2,1.06,19.2s-20.16-21.33-26.64-18.32
		c-6.47,3.01-0.27,9.58-0.27,9.58s-36.17-20.18-49.43-2.99s5.94,16.14,5.94,16.14s-67.08-0.29-52.94,8.09
		c14.14,8.38,43.18-1.98,62.29,0.15C204.55,909.83,321.45,898.74,321.45,898.74z"/>
	<g>
		<path class="st4" d="M401.89,442.39c-16.98-34.26-31.1,4.98-31.1,4.98c-17.34-11.54-25.47,22.31-10.44,28.93
			c0,0-8.61,6.07-9.2,13.47s-0.59,7.39-0.59,7.39s-13.07-5.79-19.2,3.19s0.1,15.57,0.1,15.57s-9.79,3.95-10.33,10.67
			c-0.54,6.72,1.77,11.64,13.93,11.94c0,0-7.99,6.8-0.41,13.5c7.58,6.7,24.06,12.08,37.51-3.75c7.69-9.05,44.32-9.73,51.87-33.41
			C429.69,497.13,409.17,457.07,401.89,442.39z"/>
		<path class="st4" d="M226.27,559.17c-28.08,25.95,13.55,28.44,13.55,28.44c-6.18,19.89,28.59,18.15,30.7,1.86
			c0,0,8.26,6.54,15.52,5.03c7.26-1.52,7.26-1.52,7.26-1.52s-1.87,14.17,8.48,17.52c10.35,3.35,14.91-4.49,14.91-4.49
			s6.55,8.28,13.15,6.9s10.67-4.98,7.53-16.73c0,0,8.78,5.75,13.07-3.42c4.29-9.16,4.81-26.49-14.18-34.93
			c-10.85-4.82-21.83-39.78-46.68-40.35C270.95,517.06,238.3,548.05,226.27,559.17z"/>
		<path class="st3" d="M432.9,568.22c0,0-9-51.7-22.21-51.12s-3.21,19.48-3.21,19.48s-18.43-16.28-27.38-7.13s2.22,13.33,2.22,13.33
			s-22.29,11.37-11.12,15.55s18.5-5.09,18.5-5.09s-0.86,31.18,9.86,20.53s14.78-20.19,14.78-20.19S414.06,597.96,432.9,568.22z"/>
		<path class="st3" d="M480.56,473.2c0,0,27.3-11.32,5.86-22.9s-13.38,6.43-13.38,6.43s12.29-9.53-7.68-26.84
			c-19.98-17.31-14.3,13.71-14.3,13.71s-8.52-14.38-18.35-12.67c-9.82,1.71-21.57,12.79-5.4,19.27c0,0-34.65,5.22-26.76,12.87
			c7.9,7.65,13.08,7.57,13.08,7.57s-22.66,9.69-16.22,23.07s20.27,3.31,20.27,3.31s-0.89,42.01,32.14,32.15s1.14-26.46,1.14-26.46
			s35.44,11.88,27.92-4.59s-19.6-26.13-19.6-26.13S497.06,500.42,480.56,473.2z"/>
		<path class="st4" d="M411.93,522.14c0,0-8.49-17.13,11.12-15.55c19.61,1.58,9.99,18.89,9.99,18.89s10.99-13.92,14.71,1.18
			c3.72,15.1-3.47,22.74-3.47,22.74s17.92-18.3,17.71,4.71c-0.2,23.01-15.62,10.26-15.62,10.26s-3.47,22.74-14.91,21.83
			s-5.22-16.87-5.22-16.87s-47.2,14.3-38.82-8.05c8.37-22.35,15.23-5.35,15.23-5.35s-21.83-14.91-14.37-25.82
			C395.72,519.19,411.93,522.14,411.93,522.14z"/>
		<path class="st5" d="M369.23,707.38c0,0-52.89-76.57-47.48-107.14c5.41-30.56-1.21-76.85-26.07-98.04l3.76-10.03
			c0,0,32.2,21.77,33.54,60.26c1.34,38.48-7.06,51.09-1.9,60.36c5.16,9.27,5.16,9.27,5.16,9.27l18.84-32.43l-1.04-60.6l6.46-6.86
			l3.5,66.7l-16.97,45.87l30.43,43.77L369.23,707.38z"/>
		<path class="st3" d="M206.95,535.27c0,0-13.86,8.75-2.82,14.57c11.04,5.82,15.89-13.52,15.89-13.52s-15.04,23.46-0.86,31.18
			c14.18,7.72,22.55-14.63,22.55-14.63s-0.33,24.64,12.87,24.06s11.38-18.82,11.38-18.82s3.2,21.64,16.08,4.58
			c12.88-17.06-4.44-26.67-4.44-26.67s33.86-12.08,19.68-19.8s-18.11,0.19-18.11,0.19s1.25-36.08-10.32-35.36
			c-11.57,0.72-12.23,8.89-12.23,8.89s-22.99-41.32-25.81-26.74s4.57,25.04,4.57,25.04s-26.6-16.94-29.41-2.36
			s12.42,9.22,12.42,9.22s-34.84,3.78-32.49,15.48c2.35,11.7,14.57,2.82,14.57,2.82s-26.74,25.81-12.04,26.99
			C203.16,541.55,206.95,535.27,206.95,535.27z"/>
		<path class="st3" d="M259.99,487.2c0,0-16.39-0.48-10.47,10.52c5.91,11,20.73-2.35,20.73-2.35s-25.58,11.06-18.12,25.38
			c7.46,14.32,26.88,0.45,26.88,0.45s-14.04,20.26-2.76,27.14c11.28,6.89,19.95-9.26,19.95-9.26s-9.43,19.73,10.78,12.78
			c20.21-6.96,11.21-24.6,11.21-24.6s34.84,8.88,27.38-5.44c-7.46-14.32-15.13-9.95-15.13-9.95s21.19-29.23,11.19-35.1
			c-10-5.87-15.1,0.54-15.1,0.54s3.99-47.12-6.48-36.6c-10.47,10.52-10.19,23.32-10.19,23.32s-12.61-28.9-23.08-18.38
			s5.15,14.58,5.15,14.58s-31.01-16.32-35.6-5.3c-4.58,11.02,10.52,10.47,10.52,10.47s-36.6,6.48-25.06,15.67
			S259.99,487.2,259.99,487.2z"/>
		<path class="st3" d="M297.92,439.76c0,0-16.39-0.48-10.47,10.52s20.73-2.35,20.73-2.35s-25.58,11.06-18.12,25.38
			c7.46,14.32,26.88,0.45,26.88,0.45s-14.04,20.26-2.76,27.14c11.28,6.89,19.95-9.26,19.95-9.26s-9.43,19.73,10.78,12.78
			s11.21-24.6,11.21-24.6s34.84,8.88,27.38-5.44c-7.46-14.32-15.13-9.95-15.13-9.95s21.19-29.23,11.19-35.1
			c-10-5.87-15.1,0.54-15.1,0.54s3.99-47.12-6.48-36.6c-10.47,10.52-10.19,23.32-10.19,23.32s-12.61-28.9-23.08-18.38
			s5.15,14.58,5.15,14.58s-31.01-16.32-35.6-5.3c-4.58,11.02,10.52,10.47,10.52,10.47s-36.6,6.48-25.06,15.67
			C291.27,442.85,297.92,439.76,297.92,439.76z"/>
		<path class="st3" d="M369.69,447.17c0,0-16.39-0.48-10.47,10.52c5.91,11,20.73-2.35,20.73-2.35s-25.58,11.06-18.12,25.38
			c7.46,14.32,26.88,0.45,26.88,0.45s-14.04,20.26-2.76,27.14s19.95-9.26,19.95-9.26s-9.43,19.73,10.78,12.78s11.21-24.6,11.21-24.6
			s34.84,8.88,27.38-5.44c-7.46-14.32-15.13-9.95-15.13-9.95s21.19-29.23,11.19-35.1c-10-5.87-15.1,0.54-15.1,0.54
			s3.99-47.12-6.48-36.6c-10.47,10.52-10.19,23.32-10.19,23.32s-12.61-28.9-23.08-18.38c-10.47,10.52,5.15,14.58,5.15,14.58
			s-31.01-16.32-35.6-5.3c-4.58,11.02,10.52,10.47,10.52,10.47s-36.6,6.48-25.06,15.67S369.69,447.17,369.69,447.17z"/>
	</g>
</g>
<g id="door">
	<g>
		<path class="st6" d="M635.35,278.28l75.41,41.8c2.84,1.75,4.85,4.57,5.6,7.82c0,0,20.63,34.8,27.19,47.92
			c10.67,21.35,34.72,190.22,34.72,190.22c0.59,2.59,2,4.93,4.02,6.66l37.68,32.42c2.42,2.08,3.95,5.01,4.27,8.18l10.07,98.59
			l17.2,168.35c0.72,7.09-4.64,13.35-11.76,13.72l-115.94,6.01c-5.79,0.3-11.02-3.43-12.63-9L631.5,614.11
			c-0.31-1.07-0.47-2.17-0.49-3.29l-4.09-317.74C626.8,283.25,626.99,273.11,635.35,278.28z"/>
		<path class="st7" d="M315.6,898.94l62.94-376.04l32.88-36.78l73.44-191.69c1.49-3.88,4.99-6.63,9.12-7.13
			c27.65-3.37,131.59-15.73,137.28-11.47c6.56,4.92,18.05,117.64,18.85,124.59l12.53,176.35l44.55,46.62l7.25,277.63L315.6,898.94z"
			/>
		<path class="st6" d="M492.96,287.44l66.44-7.52l-61.75,87.7l22.13,6.15l-31.75,4.12l-25.89,103.11l91.25,7.1l-141.97-1.99
			l73.44-192.39C486.17,290.28,489.3,287.86,492.96,287.44z"/>
		<polygon class="st6" points="411.42,486.12 378.54,522.89 350.67,692.2 344.11,705.86 341.14,722.53 344.33,727.39 339.79,754.47 
			443.59,758.39 497.65,758.59 404.22,641.38 450.11,639.74 450.11,526.63 479.21,486.88 		"/>
		<polygon class="st6" points="340.15,752.58 315.6,898.94 535.77,899.98 523.47,842.19 442.78,751.11 		"/>
		<path class="st6" d="M500.52,507.39c-1.68,0.24-2.96,1.6-3.09,3.29c-1.25,16.03-7.28,93.61-7.28,96.4
			c0,3.11-16.57,16.57-16.57,16.57l-6.22,89.09h3.11l7.25-88.05l15.54-13.47L500.52,507.39L500.52,507.39z"/>
		<path class="st6" d="M497.11,612.7c0,0,74.88-0.43,76.96-0.43S575.1,720,575.1,720h-3.11l1.04-104.63L497.11,612.7z"/>
		<polygon class="st6" points="556.39,713.78 503.39,711.6 501.75,713.24 467.36,715.21 468.69,711.48 500.93,711.33 503.12,709.93 
			556.39,711.87 		"/>
		<path class="st7" d="M452.3,757.77l-8.74-0.55c0,0-30.85,1.83-57.95,1.37c-1.28-0.02-3.07-3.76-4.34-3.78
			c-20.23-0.34-38.44-0.56-41.47-0.34l-0.47,3.02c0,0,18.87-0.02,41.34,0.09c1.55,0.01,3.63,3.73,5.21,3.74
			c21.31,0.11,44.83-1.54,58.23-1.09l8.74,0.82L452.3,757.77z"/>
		<path class="st6" d="M643.55,755.59c0,0,2.19,105.46,2.19,125.13s0,19.67,0,19.67l2.19-0.55l-1.64-137.7L643.55,755.59z"/>
		<polygon class="st6" points="673.19,755.59 573.2,757.22 572.65,761.05 		"/>
		<path class="st7" d="M451.75,712.96c0,0-1.02,107.15-1.02,119.98s-0.89,35.13-0.89,35.13l2.12-0.08c0,0,2.8-129.99,2.25-152.9
			l24.04-1.22L451.75,712.96z"/>
		<polygon class="st6" points="632.48,594.66 632.89,674.99 690.27,674.58 689.45,718.84 687.81,677.86 629.62,677.04 
			631.26,598.76 		"/>
		<polyline class="st6" points="491.36,375.04 488.03,377.89 591.75,373.65 596.83,370.9 		"/>
		<polygon class="st6" points="592.73,321.72 595.19,393.85 625.52,394.26 597.51,383.88 		"/>
		<path class="st7" d="M459.13,647.12c0,0-57.92-11.2-89.89-3.82L459.13,647.12z"/>
		<g>
			<path class="st8" d="M537.54,649.4c0-7.51-6.39-12.73-13.68-11.75c-6.7,0.9-11.75,6.81-11.75,13.26c0,5.02,3.07,9.34,7.6,11.06
				v16.19c0,2.14,1.79,4.11,4.05,4.41l0.8,0.11c2.35,0.32,4.3-1.25,4.3-3.51v-17.3C533.83,659.94,537.54,655.12,537.54,649.4z"/>
			<path class="st9" d="M541.23,649.4c0-7.51-6.39-12.73-13.68-11.75c-6.7,0.9-11.75,6.81-11.75,13.26c0,5.02,3.07,9.34,7.6,11.06
				v17.23c0,2.14,1.93,3.79,4.05,3.48l0.8-0.01c2.35,0.32,4.3-1.25,4.3-3.51v-17.3C537.52,659.94,541.23,655.12,541.23,649.4z"/>
		</g>
		<path class="st6" d="M570.33,580.78l-2.19-47.59c-0.11-0.03-54.52-11.97-54.52-11.97l58.62,2.13L570.33,580.78z"/>
		<polygon class="st7" points="427.71,532.64 475.25,531 479.35,533.05 430.44,534.84 425.53,593.84 		"/>
		<polygon class="st6" points="557.49,482.37 557.49,431.14 559.95,398.77 560.49,481.83 		"/>
		<polygon class="st6" points="578.8,480.73 637.81,479.5 638.77,484.28 584.67,483.06 		"/>
		<polygon class="st6" points="574.15,612.42 581.26,678.29 590,684.28 593.55,683.73 615.68,689.35 571.97,690.45 		"/>
		<polygon class="st7" points="722.64,500.4 714.04,461.06 699.09,457.33 674.7,451.23 711.17,465.16 		"/>
		<polygon class="st6" points="632.07,592.2 587.4,592.61 583.72,589.34 632.89,590.16 		"/>
		<polygon class="st6" points="566.5,724.58 565.93,762.14 567.95,767.33 567.87,772.24 566.85,829.15 569.78,828.67 573.06,724.58 
					"/>
		<polygon class="st7" points="466.77,477.27 470.73,489.28 475.36,477.86 		"/>
		<polygon class="st7" points="653.8,496.72 670.19,506.14 654.61,517.62 		"/>
		<path class="st6" d="M662.4,533.6l-12.13,8.09c-1.15,0.77-1.01,2.49,0.24,3.07l13.12,6.06L662.4,533.6z"/>
		<polygon class="st7" points="539.32,887.82 515.96,882.9 540.14,874.71 		"/>
		<path class="st7" d="M705.02,731.54c2.46,0,15.57,8.2,15.57,8.2l-14.75,6.56L705.02,731.54z"/>
		<polygon class="st6" points="472.25,658.05 472.25,672.26 457.49,666.79 		"/>
		<polygon class="st7" points="564.86,665.15 578.8,670.62 564.86,678.27 		"/>
		<polygon class="st7" points="491.51,795.47 486.59,816.38 502.57,807.77 		"/>
		<polygon class="st7" points="450.93,816.38 433.72,828.67 449.7,837.28 		"/>
		<polygon class="st6" points="595.46,481.83 602.16,494.26 608.58,482.37 		"/>
		<polygon class="st7" points="680.84,344.67 701.74,360.25 707.48,410.24 704.2,358.61 679.61,338.53 		"/>
		<polygon class="st7" points="697.65,406.56 702.97,458.6 699.09,457.33 695.6,403.69 		"/>
		<polygon class="st7" points="695.6,403.69 732.89,418.85 696.01,407.79 		"/>
		<path class="st7" d="M785.5,681.91l34.34,1.04l-38.65,3.74l0,0C780.83,684.11,782.89,681.83,785.5,681.91z"/>
		<polygon class="st7" points="716.5,474.18 724.69,478.27 718.55,484.01 		"/>
		<g>
			<polygon class="st7" points="774.42,569.65 733.63,564.99 772.23,564.61 			"/>
			<polygon class="st7" points="738.55,565.26 745.57,594.77 732.41,564.92 			"/>
			<polygon class="st7" points="737.15,575.85 728.98,582.8 740.42,583.83 			"/>
		</g>
		<polygon class="st7" points="781.52,681.82 777.42,717.06 786.44,746.57 788.9,783.04 790.54,745.75 781.52,718.7 		"/>
	</g>
	<polygon class="st6" points="637.81,285.66 630.44,301.23 647.65,307.79 	"/>
</g>
<g id="moss">
	<g>
		<path class="st10" d="M706.8,832.45c6.56-2.63,4.1-16.76-5.74-11.83C691.23,825.56,700.24,835.08,706.8,832.45z"/>
		<path class="st10" d="M729.75,836.18c0,0-2.6-7.51-11.2-7.51s-13.8,9.43-0.27,16.8S729.75,836.18,729.75,836.18z"/>
		<path class="st10" d="M689.93,821.1c9.82-4.48,1.71-10.14-4.06-11.1C680.11,809.03,680.11,825.58,689.93,821.1z"/>
		<path class="st10" d="M729.61,818.42c0,0,0-12.29-7.38-12.29C714.86,806.13,705.02,814.74,729.61,818.42z"/>
		<path class="st10" d="M710.35,784c0,0-11.07,13.52,2.46,9.84S722.64,785.23,710.35,784z"/>
		<path class="st10" d="M705.43,755.72c0,0-14.75,22.13-11.07,7.38C698.06,748.35,705.43,755.72,705.43,755.72z"/>
		<path class="st10" d="M697.28,779.49c-6.94,1.23-9.92,17.21,1.98,14.75S704.22,778.26,697.28,779.49z"/>
		<path class="st10" d="M705.45,794.93c-6.57,1.2-9.38,16.79,1.88,14.39S712.02,793.73,705.45,794.93z"/>
	</g>
	<path class="st1" d="M704.04,856.52c0,0-11.71-15.74-2.82-16.06c8.89-0.32,6.3,6.09,6.3,6.09s9.31,0.04,4.82,6.98
		C707.84,860.48,704.04,856.52,704.04,856.52z"/>
	<g>
		<path class="st1" d="M353.95,786.34c0,0-11.62-9.6,2.53-17.68c14.15-8.08,17.18,10.61,14.15,14.15
			C367.59,786.34,358.49,789.38,353.95,786.34z"/>
		<path class="st1" d="M356.47,789.88c0,0,6.06-7.58,10.61-3.54c4.55,4.04,5.05,10.61,0,14.65c0,0,2.53-6.06,11.11-4.04
			c8.59,2.02-0.51,18.19-0.51,18.19s6.06-4.04,7.07,2.02c1.01,6.06,0,13.14-8.08,11.62c-8.08-1.52-6.57-7.07-6.57-7.07
			s-4.55,3.03-10.1-2.53s-0.51-14.15-0.51-14.15S348.89,796.45,356.47,789.88z"/>
		<path class="st1" d="M337.27,825.75c0,0,3.54-6.57-4.04-8.59s-11.11,3.03-6.06,7.58C332.22,829.29,337.27,825.75,337.27,825.75z"
			/>
		<path class="st1" d="M348.89,807.56c-1.01-3.03-3.03-11.11,5.05-10.61c8.08,0.51,7.58,11.11,3.03,12.63
			C352.43,811.1,349.9,810.59,348.89,807.56z"/>
		<path class="st1" d="M363.44,763.28c-0.83-2.5-2.5-9.18,4.17-8.77c6.68,0.42,6.26,9.18,2.5,10.43
			C366.36,766.2,364.27,765.78,363.44,763.28z"/>
		<path class="st1" d="M376.57,785.51c-0.83-2.5-2.5-9.18,4.17-8.77c6.68,0.42,6.26,9.18,2.5,10.43S377.41,788.01,376.57,785.51z"/>
		<path class="st1" d="M365.96,843.1c-0.83-2.5-2.5-9.18,4.17-8.77c6.68,0.42,6.26,9.18,2.5,10.43
			C368.88,846.02,366.8,845.61,365.96,843.1z"/>
		<path class="st1" d="M354.85,769.84c-0.83-2.5-2.5-9.18,4.17-8.77c6.68,0.42,6.26,9.18,2.5,10.43
			C357.77,772.77,355.68,772.35,354.85,769.84z"/>
	</g>
	<g>
		<path class="st10" d="M698.04,592.85c0,0,4.12-14.5-12.12-13.13c-16.23,1.37-8.12,18.48-3.62,19.68
			C686.81,600.59,696.02,597.93,698.04,592.85z"/>
		<path class="st1" d="M697.97,597.2c0,0-9.29-2.8-10.74,3.11s1.86,11.6,8.32,12.06c0,0-5.52-3.56-11.45,2.98
			s10.74,14.69,10.74,14.69s-7.29,0.11-4.68,5.68c2.61,5.57,7.46,10.82,13.25,4.98c5.8-5.84,1.39-9.55,1.39-9.55
			s5.46-0.08,6.89-7.81c1.42-7.73-7.61-11.93-7.61-11.93S707.94,598.3,697.97,597.2z"/>
		<path class="st10" d="M734.13,615.83c0,0-6.64-3.4-1.55-9.37c5.09-5.96,10.87-3.81,9.29,2.8S734.13,615.83,734.13,615.83z"/>
		<path class="st10" d="M714.24,607.45c-0.89-3.07-3.81-10.87-10.18-5.87c-6.37,5,0.07,13.45,4.67,12.12
			S715.13,610.52,714.24,607.45z"/>
		<path class="st10" d="M677.14,579.24c-0.73-2.54-3.15-8.98-8.41-4.85c-5.26,4.13,0.06,11.11,3.86,10.01
			C676.39,583.31,677.87,581.78,677.14,579.24z"/>
		<path class="st1" d="M678.94,605c-0.73-2.54-3.15-8.98-8.41-4.85c-5.26,4.13,0.06,11.11,3.86,10.01
			C678.19,609.07,679.67,607.54,678.94,605z"/>
		<path class="st10" d="M720.36,646.4c-0.73-2.54-3.15-8.98-8.41-4.85c-5.26,4.13,0.06,11.11,3.86,10.01
			C719.61,650.47,721.09,648.94,720.36,646.4z"/>
		<path class="st10" d="M687.94,579.78c-0.73-2.54-3.15-8.98-8.41-4.85c-5.26,4.13,0.06,11.11,3.86,10.01
			C687.19,583.84,688.67,582.31,687.94,579.78z"/>
	</g>
	<path class="st10" d="M453.39,902.03c0,0-9.43-25.82-18.85-27.05c-9.43-1.23,11.47,22.95,11.47,22.95s-14.34-12.29-25.41-15.16
		c-11.07-2.87,12.29,16.39,12.29,16.39s-22.54-9.84-26.64-9.02c-4.1,0.82,26.64,11.88,29.51,12.29
		C438.64,902.85,453.39,902.03,453.39,902.03z"/>
	<path class="st10" d="M453.39,900.8c0,0-2.46-24.18,4.51-31.15c6.97-6.97,4.8,6.52,2.46,13.52
		C455.03,899.16,453.39,900.8,453.39,900.8z"/>
	<path class="st1" d="M310.78,904.49c0-3.69-0.82-25.82,7.79-36.88c8.61-11.07,13.93-9.02,13.93-9.02l-15.98,37.7
		c0,0,9.02-13.11,15.57-15.16c6.56-2.05,8.61-0.41,8.61-0.41l-25.82,22.54L310.78,904.49z"/>
</g>
<g id="grass">
	<path class="st10" d="M694.37,858.18c0,0,2.46-13.52-7.38-22.13c-9.84-8.61-17.21,4.92-17.21,4.92s-3.69-18.44-22.13-20.9
		S632.48,859,633.71,867.6c0,0-29.1-32.79-45.08-24.18c-15.98,8.61,26.23,38.93,33.61,43.85c0,0-44.67-15.57-54.51-11.88
		c-9.84,3.69,11.07,27.05,27.05,29.51c15.98,2.46,29.51,9.84,47.95,1.23c0,0,44.26,13.52,56.56-1.23
		C711.58,890.14,694.37,858.18,694.37,858.18z"/>
	<path class="st1" d="M691.23,911.45c0,0-3.28-34.42,13.11-49.18c16.39-14.75-1.64,26.23-1.64,26.23s18.03-24.59,24.59-21.31
		c6.56,3.28-6.56,21.31-6.56,21.31s3.28-3.28,8.2,3.28c4.92,6.56-26.77,20.22-26.77,20.22L691.23,911.45z"/>
	<path class="st10" d="M789.79,898.67c0,0-10.6-27.44,4.79-21.7c15.39,5.74,9.79,11.43,9.79,11.43s15.65-45.93,27.26-33.16
		c11.61,12.77,7.27,18.18,7.27,18.18s10.04-53.07,26.86-37.86c16.82,15.21-6.27,33.22-6.27,33.22s16.54-18.63,20.51-3.1
		c3.96,15.54-21.19,30.63-21.19,30.63L789.79,898.67z"/>
	<path class="st4" d="M691.5,882.32c0,0,9.56-19.97-0.9-22.85c-10.47-2.88-9.54,11.4-9.54,11.4s4.68-12.68-11.5-13.67
		c-16.18-0.99-8.6,16.17-8.6,16.17s-19.83-26.38-32.23-14.03c-12.4,12.35,4.71,22.86,4.71,22.86s-15.24,5.68-4.79,16.17
		c10.45,10.49,19.98,5.75,19.98,5.75s-18.12,14.24-0.98,11.42c17.14-2.82,12.71,0,21.73,0s13.5-2.79,25.87-2.76
		c12.38,0.03,7.32-10.14,7.32-10.14s26.06-17.4,11.79-23.14C700.08,873.77,691.5,882.32,691.5,882.32z"/>
	<path class="st10" d="M759.12,902.03c-3.28-3.28-29.73-28.59-14.29-26.76c15.44,1.83,14.28,8.35,14.28,8.35s-3.6-35.66,9.01-23.21
		c12.62,12.46,7.38,23.58,7.38,23.58s18.19-21.34,17.31-7.34c-0.87,13.99-3.38,16.36-3.38,16.36s12.72-25.82,16.17-15.24
		s-10.02,21.79-10.02,21.79C781.33,902.43,762.4,905.31,759.12,902.03z"/>
</g>
<g id="legs">
	<g>
		<path class="st11" d="M159.35,943.19c0,0-1.49,8.15-0.79,12.28s4.38,4.24,10.52,4.43c6.14,0.19,10.33-2.55,16.03-1.14
			c5.7,1.41,17.14-1.92,20.51-4.69c3.37-2.76,2.28-7.45,1.17-11.17c-1.11-3.73-5.5-3.32-16.98-3.27
			C178.32,939.68,159.91,938.29,159.35,943.19z"/>
		<path class="st9" d="M159.48,939.09c0,0-1.49,8.15-0.79,12.28s5.99,4.97,12.14,5.16c6.14,0.19,8.71-3.28,14.41-1.87
			c5.7,1.41,14.35-0.1,17.72-2.86c3.37-2.76,4.72-6.69,3.61-10.41c-1.11-3.73-12.4-5.58-23.88-5.53
			C171.19,935.91,160.04,934.19,159.48,939.09z"/>
		<path class="st12" d="M209.12,820.1c0.7-15.64-9.94-22.86-21.43-22.81c-11.48,0.05-12.24,11.1-9.93,29.21
			c2.3,18.11-1.06,20.88-1.93,22.49c-0.87,1.61-4.5,6.32-3.01,10.87c1.5,4.56,0.48,4.22,3.67,7.19c3.19,2.97,22.75,15.78,23.64,4.43
			C200.77,863.46,208.37,837.07,209.12,820.1z"/>
		<path class="st13" d="M198.7,851.89c0,0-1.13-16.16-2.29-31.78c-1.15-15.62,2.77-22.87-8.72-22.82
			c-11.48,0.05-12.24,11.1-9.93,29.21c2.3,18.11-1.06,20.88-1.93,22.49c-0.87,1.61-4.5,6.32-3.01,10.87
			c1.5,4.56,0.48,4.22,3.67,7.19c3.19,2.97,6.12,14.76,10.93,4.44C192.7,860.18,198.7,851.89,198.7,851.89z"/>
		<path class="st12" d="M190.2,926.93c0,0,3.94,5.04,2.62,7.87c-1.32,2.83-5.49,5.16-14.18,7.76c-8.69,2.6-22.57,0.52-21.54-6
			s2.62-5.25,2.62-5.25s6.77-46.12,9.09-54.66c2.32-8.54,2.06-13.47,10.29-14.44c8.23-0.97,20.55-1.41,21.03,9.27
			C200.62,882.16,190.2,926.93,190.2,926.93z"/>
		<path class="st13" d="M190.2,926.93c0,0,3.94,5.04,2.62,7.87c-1.32,2.83-5.49,5.16-14.18,7.76c-8.69,2.6-22.57,0.52-21.54-6
			s2.62-5.25,2.62-5.25s6.77-46.12,9.09-54.66c2.32-8.54,2.94-15.28,11.17-16.26c8.23-0.97,13.83-3.05,12.78,4.3
			C191.25,875.27,190.2,926.93,190.2,926.93z"/>
	</g>
	<path class="st14" d="M230.84,942.83c0,0-2.54,11.4-0.48,15.29c2.06,3.89,13.02,3.14,18.52,2.22c5.5-0.92,6.71-4.71,14.35-4.47
		c7.65,0.24,11.54-1.83,13.88-6.67c2.34-4.85-4.54-12.17-10.56-11.81c-6.02,0.36-15.26-1.57-23.5-0.19
		C234.8,938.58,231.56,937.39,230.84,942.83z"/>
	<path class="st9" d="M230.97,938.73c0,0-2.54,11.4-0.48,15.29c2.06,3.89,13.88,2.07,19.37,1.15c5.5-0.92,5.85-3.64,13.5-3.4
		c7.65,0.24,11.54-1.83,13.88-6.67s-6.21-11.13-12.24-10.77c-6.02,0.36-13.59-2.61-21.83-1.23
		C234.93,934.48,231.69,933.29,230.97,938.73z"/>
	<path class="st13" d="M235.25,797.55c-0.35,11.31-14.85,20.04-32.39,19.49s-28.97,1.96-31.1-21.47
		c-1.03-11.27,14.85-20.04,32.39-19.49C221.68,776.62,235.61,786.24,235.25,797.55z"/>
	<path class="st13" d="M207.51,792.99c14.91-4.86,22.43-9.14,27.88,0.05c5.45,9.19,10.23,40.09,11.25,46.68
		c1.02,6.59,1.82,20.56-9.31,22.26c-11.12,1.7-14.74,4.05-18.53-10.42c-2.93-11.16-6.76-19.89-13.96-25.45
		C197.63,820.56,192.6,797.85,207.51,792.99z"/>
	<path class="st12" d="M243.05,829.98c-1.96-18.21,2.83,0.43,3.59,9.75c0.74,9.04,1.82,20.56-9.31,22.26
		C226.21,863.69,245.83,855.78,243.05,829.98z"/>
	<path class="st13" d="M255.53,940.05c0,0,7.39-0.18,6.75-5.94s-6.2-9.42-6.2-9.42s-3.52-64.28-8.12-74.67s-24.79-6.93-26.8,4.9
		c-2.01,11.83,2.21,38.84,3.09,45.35c1,7.36,1.98,12.21,2.35,16.53c0.38,4.32,0.12,9.18,0.12,9.18s-1.67,0.82-1.83,6.14
		s3.67,9.34,6.67,9.64C236.54,942.26,255.53,940.05,255.53,940.05z"/>
	<path class="st12" d="M255.53,940.05c0,0,7.39-0.18,6.75-5.94s-6.2-9.42-6.2-9.42s-3.52-64.28-8.12-74.67s-7.83-8.33-5.85,3.51
		c4.49,26.79,3.4,48.49,3.61,55.06c0.2,6.57-3.3,20.19-1.83,25.57C245.36,939.53,255.53,940.05,255.53,940.05z"/>
	<path class="st13" d="M184.06,808.66c0,0,7.44-1.82,10.23,0.73s14.58,18.91,14.58,18.91l-15.47-16.48L184.06,808.66z"/>
	<path class="st12" d="M247.25,892.43c0,0-0.97,11.45-5.13,19.93C242.11,912.36,249.96,910.56,247.25,892.43z"/>
	<path class="st12" d="M193.7,880.51c0,0-1.51,8.97-5.61,15.41c-4.1,6.43-5.56,7.21-5.56,7.21S197.42,899.28,193.7,880.51z"/>
</g>
<g id="left_arm">
	<path class="st15" d="M175.62,707.12c-5.6-0.18-10.41,9.51-17.78,35.25c-3.65,12.74-3.71,22.57,4.54,20.92s10.49-3.23,15.42-21.11
		C190.22,712.22,186.61,707.46,175.62,707.12z"/>
	<path class="st16" d="M187.35,751.77c0,0-9.52-1.59-13.63-1.35c-4.11,0.24-3.21,2.18-7.14,5.34c-6.49,5.22-8.86,3.55-8.84,7.38
		c0.02,5.22,14.06,4.81,19.52,4.98c5.46,0.17,25.27,4.89,29.77,0.66C211.55,764.55,204.29,751.75,187.35,751.77z"/>
</g>
<g id="torso">
	<path class="st0" d="M168.91,785.01c-1.69,1.59-0.6,5.19,0.61,6.58c0,0,10.86,3.42,18.72,1.2c7.86-2.21,9.58-4.72,16.25-5.03
		c7.37-0.34,24.86,1.7,29.54,2.57c2.7,0.5,1.42-6.11,1.42-6.11s-19.65-7.38-33.34-2.48C188.44,786.65,173.3,788.84,168.91,785.01z"
		/>
	<path class="st13" d="M202.95,703.05c0,0-24.25,27.94-33.74,16.98c-9.5-10.96,7.36-25.6,20.15-28.07S217.04,698.16,202.95,703.05z"
		/>
	<path class="st0" d="M199.6,692.01c0,0-15.66,2.65-21.55,7.39c-4.07,3.27-8.77,11.72-4.77,14.82c1.85,1.43-5.36,3.98-5.02,5.38
		c0,0-4.97-7.13,0.62-15.56c5.59-8.44,12.27-11.44,18.83-12.19C195.26,690.99,199.6,692.01,199.6,692.01z"/>
	<g>
		<polygon class="st17" points="217.26,678.08 216.36,698.82 198.76,700.73 199.15,680.24 		"/>
		<path class="st18" d="M217.26,678.08l-0.9,20.75c0,0-2.88-4.19-3.52-7.49c-0.65-3.3-13.68-11.09-13.68-11.09L217.26,678.08z"/>
	</g>
	<path class="st16" d="M215.08,695.5c0,0,6.93-3.06,12.48,3.12c5.55,6.19,9.75,29.01,9.32,34.19c-0.44,5.18,0.49,15.15,3.03,21.01
		c4.21,9.7,1.24,25.87-1.64,30.43c-2.88,4.56-1.44,2.41-13.16,1.23c-11.72-1.19-25.1-1.61-33.41,1.96c-8.31,3.57-20.37,4.56-23.2-1
		c-2.83-5.56-1.38-8.24,2.59-12.77c3.97-4.52,4.73-20.08,3.43-31.05c-0.76-6.45-1-14.52,1.79-23.28c1.95-6.13,7.38-0.08,16.92-9.93
		C204.76,697.48,215.08,695.5,215.08,695.5z"/>
	<path class="st19" d="M215.08,695.5c0,0,6.93-3.06,12.48,3.12c5.55,6.19,6.37,32.18,5.94,37.36c-0.44,5.18,3.87,11.98,6.41,17.83
		c4.21,9.7,1.24,25.87-1.64,30.43c-2.88,4.56-1.44,2.41-13.16,1.23c-11.72-1.19-25.1-1.61-33.41,1.96c-8.31,3.57-20.37,4.56-23.2-1
		c-2.83-5.56-1.38-8.24,2.59-12.77c3.97-4.52,4.73-20.08,3.43-31.05c-0.76-6.45-1-14.52,1.79-23.28c1.95-6.13,7.38-0.08,16.92-9.93
		C204.76,697.48,215.08,695.5,215.08,695.5z"/>
	<path class="st0" d="M225.76,694.75c0,0-5.54-6.32-15.51-2.13s-19.36,15.79-23.58,19.76c-4.22,3.97-12.53,2.89-16.5-1.34
		c-3.97-4.22-6.16,4.73-0.24,11.88s9.14,9.31,15.71,9.1c6.57-0.2,10.52-8.69,15.63-14.68c5.11-5.99,9.59-18.15,13.75-20.07
		c4.16-1.92,11.5-0.66,13.82,3.92c2.32,4.58,4.26,8.13,4.26,8.13S234.99,701.18,225.76,694.75z"/>
</g>
<g id="right_arm">
	<g>
		<path class="st13" d="M227.02,750.55c0,0,3.64-29,2.63-36c-1.01-7-0.83-12.74-8.95-15.45c-8.12-2.71-13.08,11.89-13.74,19.66
			c-0.65,7.77-4.39,35.53-1.62,38.49C208.13,760.21,226.27,765.69,227.02,750.55z"/>
		<path class="st15" d="M227.02,750.55l-9.68-22.44l3.37-29.01c-8.12-2.71-13.08,11.89-13.74,19.66
			c-0.65,7.77-4.39,35.53-1.62,38.49C208.13,760.21,226.27,765.69,227.02,750.55z"/>
	</g>
</g>
<g id="key">
	<path class="st8" d="M268.56,789.09c-8.95-0.78-16.81,5.53-17.56,14.1c-0.75,8.57,5.89,16.15,14.84,16.93
		c8.95,0.78,16.81-5.53,17.56-14.1C284.15,797.45,277.5,789.87,268.56,789.09z M264.91,811.07c-3.72-0.33-6.47-3.6-6.14-7.32
		c0.33-3.72,3.6-6.47,7.32-6.14c3.72,0.33,6.47,3.6,6.14,7.32C271.9,808.64,268.63,811.39,264.91,811.07z"/>
	<path class="st20" d="M268.07,795.94c-4.73-0.41-8.89,3.08-9.3,7.81c0.33-3.72,3.6-6.47,7.32-6.14c3.72,0.33,6.47,3.6,6.14,7.32
		c-0.33,3.72-3.6,6.47-7.32,6.14c-3.72-0.33-6.47-3.6-6.14-7.32c-0.41,4.73,3.08,8.89,7.81,9.3c4.73,0.41,8.89-3.08,9.3-7.81
		C276.29,800.52,272.8,796.35,268.07,795.94z"/>
	<path class="st8" d="M269.91,793.14c1.33,0.02,2.46-0.92,2.62-2.19l13.35-103.46l1.05-12c0.11-1.25-0.75-2.39-2.02-2.68h0
		c-1.44-0.32-4.29-1.28-4.56,0.12l-2.91,23.63c-0.03,0.16-0.08,0.31-0.14,0.46l-0.72,6.19c-0.09,0.21-0.15,0.44-0.17,0.67
		l-11.52,86.4c-0.17,1.47,1.02,2.77,2.56,2.8L269.91,793.14z"/>
	<path class="st20" d="M292.51,682.3l1.35,2.72l0.15,6.38l3.57,0.31l9.9-8.55l1.28,3.03l-0.61,6.94c0,0-4.68-0.19-5.28,2.57
		c-0.43,2.02,3.22,1.39,3.22,1.39l1.53,2.12l-0.97,11.06l-8.8-1.26l-0.92-2.81l0.41-4.64l-4.46-0.39l-1.4,7.99l-8.36-1.32l-1.46-2.9
		L292.51,682.3z"/>
	<path class="st8" d="M283.21,681.34l9.45,0.83l0.15,6.36l4.2,0.37l1.28-6.59l9.09,0.85l-0.61,6.94c0,0-3.88,0.01-4.47,2.78
		s1.06,3.97,3.86,4.22l-0.89,10.15l-8.37-1.09l0.64-7.35l-5.25-0.46l-1.4,7.99l-10.09-1.59L283.21,681.34z"/>
	<g>
		<line class="st21" x1="277.3" y1="731.5" x2="275.12" y2="750.99"/>
		<circle class="st22" cx="277.67" cy="727.32" r="1.33"/>
	</g>
	<path class="st21" d="M278.56,796.27c0,0,3.18,4.39,2.34,10.9c-0.84,6.51-4.57,8.38-4.57,8.38"/>
	<path class="st2" d="M285.99,681.59c0,0-2.23-0.33-2.37,0.41c-0.13,0.74-1.24,10.28-1.24,10.28s1.67-9.73,1.72-10.2
		S284.9,681.88,285.99,681.59z"/>
	<polygon class="st2" points="281.51,702.18 282.47,694.14 282.07,694.01 	"/>
</g>
<g id="right_forearm">
	<path class="st18" d="M258.39,776.41c0,0,3.95,0.74,4.99-3.21s1.82-5.45,2.01-5.75c0.2-0.29,3.1-1.03,3.44-0.77
		c1.42,1.08-0.98,5.49,0.85,5.54s10.16,2.41,10.73,3.65c0.57,1.24,0.44,5.52,0.44,5.52l-3.72,1.72c0,0,0.22,2.76-0.44,4.27
		c-0.66,1.51-2.57,3.89-2.57,3.89l-9.73-1.83c0,0-4.84-1.68-6.89-4.5C255.46,782.13,258.39,776.41,258.39,776.41z"/>
	<path class="st0" d="M254.93,771.51c0,0,2.5-1.42,4.87,1.52c2.37,2.94,2.17,9.36,0.39,13.82c-1.78,4.45-3.41,3.99-3.41,3.99
		l-4.84-2.61L254.93,771.51z"/>
	<path class="st16" d="M224.03,749.91c1.98-0.96,2.64-1.4,4.78,1.21c2.76,3.37,6.88,6.26,12.14,8.48
		c5.26,2.21,15.75,7.74,16.43,12.27c0.68,4.53,2.58,9.24-1.3,15.27c-3.88,6.03-7.83,1.39-13.49-1.24s-31.03-19.65-34.72-23.74
		c-2.58-2.85-3.61-5.96,1.12-6.32C215.54,755.32,222.06,750.87,224.03,749.91z"/>
	<path class="st14" d="M224.03,749.91c1.98-0.96,2.64-1.4,4.78,1.21c2.76,3.37,6.88,6.26,12.14,8.48
		c5.26,2.21,15.75,7.74,16.43,12.27c0.68,4.53,2.58,9.24-1.3,15.27c-3.88,6.03-7.83,1.39-13.49-1.24s-31.03-19.65-34.72-23.74
		c-2.58-2.85-3.61-5.96,1.12-6.32C215.54,755.32,222.06,750.87,224.03,749.91z"/>
	<path class="st16" d="M224.48,748.83c1.98-0.96,11.74,18,17,20.21c5.26,2.21,15.13,1.29,15.81,5.83c0.68,4.53,2.67,6.23-1.2,12.26
		c-3.88,6.03-7.83,1.39-13.49-1.24s-31.03-19.65-34.72-23.74c-2.58-2.85-3.61-5.96,1.12-6.32
		C215.54,755.32,222.5,749.79,224.48,748.83z"/>
</g>
<g id="head">
	<path class="st18" d="M214.6,645.19c0,0,9.87-1.77,12.93,5.94c3.17,7.96,4.95,25.37,3.2,28.6s-2.34,4.85-15.1,6.5
		c-12.76,1.65-22.83,0.11-21.57-13.8C195.32,658.53,196.03,649.12,214.6,645.19z"/>
	<path class="st17" d="M214.6,645.19c0,0,9.87-1.77,12.93,5.94c0.64,1.62-7.53,21.69-7.52,23.96c0.03,5.74,7.15,6.68,7.22,7.4
		c0.06,0.72,1.16,2.09-11.6,3.74c-12.76,1.65-22.83,0.11-21.57-13.8C195.32,658.53,196.03,649.12,214.6,645.19z"/>
	<path class="st15" d="M217.46,654.3c0,0,15.86-8.8,7.79-13.15c-8.06-4.35-23.05-3.8-26.09,1.85l-1.72,0.42
		c0,0-5.21,0.38-11.62,8.79c-6.41,8.41-5.1,26.86,6.39,31.63c5.33,2.22,7.16,2.75,11.26,2.61c4.1-0.14,8.35-0.49,10.18-6.58
		C215.48,673.79,217.46,654.3,217.46,654.3z"/>
	<path class="st10" d="M217.46,654.3c0,0,15.86-8.8,7.79-13.15c-8.06-4.35-17.77-0.01-15.9,1.42c1.87,1.43,4.51,4.51,4.51,4.51
		s-7.54,13.98-9.13,21.04l1.9,0.33c0,0,5.19,17.52,7.02,11.43C215.48,673.79,217.46,654.3,217.46,654.3z"/>
	
		<ellipse transform="matrix(0.9783 -0.207 0.207 0.9783 -132.7097 58.8687)" class="st17" cx="214.98" cy="663.66" rx="3.82" ry="6.15"/>
	<g>
		<path class="st20" d="M227.88,657.04c0.14,1.52-0.32,2.23-0.88,2.29c-0.56,0.05-1-0.58-1.14-2.1c-0.14-1.52,0.2-2.79,0.76-2.84
			C227.17,654.33,227.74,655.52,227.88,657.04z"/>
		<path class="st23" d="M226.56,651.31c-1.62,0.35-2.65,1.59-2.65,1.59"/>
	</g>
	<path class="st10" d="M218.83,651.95l1.09,9.67c0.05,0.48-0.1,0.97-0.42,1.33l-2.05,2.35l-1.07-13.7L218.83,651.95z"/>
</g>
</svg>
